<svg xmlns="http://www.w3.org/2000/svg" width="24.634" height="24.634" viewBox="0 0 24.634 24.634">
  <defs>
    <style>
      .cls-1 {
        fill: #605d5d;
      }
    </style>
  </defs>
  <path id="reports-dashboard_" data-name="reports-dashboard " class="cls-1" d="M7.875,5.27V24.337a.831.831,0,0,1-.829.829h0a.831.831,0,0,1-.829-.829V7.165H5.27A1.893,1.893,0,0,0,3.375,9.06V26.114A1.893,1.893,0,0,0,5.27,28.009H26.179a1.831,1.831,0,0,0,1.83-1.83V5.27a1.893,1.893,0,0,0-1.895-1.895L9.652,3.493A1.7,1.7,0,0,0,7.875,5.27Zm3.908,1.895h4.974a.831.831,0,0,1,.829.829h0a.831.831,0,0,1-.829.829H11.784a.831.831,0,0,1-.829-.829h0A.831.831,0,0,1,11.784,7.165Zm0,9.475h8.764a.831.831,0,0,1,.829.829h0a.831.831,0,0,1-.829.829H11.784a.831.831,0,0,1-.829-.829h0A.831.831,0,0,1,11.784,16.639Zm11.606,6.4H11.784a.831.831,0,0,1-.829-.829h0a.831.831,0,0,1,.829-.829H23.39a.831.831,0,0,1,.829.829h0A.831.831,0,0,1,23.39,23.035Zm0-9.475H11.784a.831.831,0,0,1-.829-.829h0a.831.831,0,0,1,.829-.829H23.39a.831.831,0,0,1,.829.829h0A.831.831,0,0,1,23.39,13.56Z" transform="translate(-3.375 -3.375)"/>
</svg>
