<svg xmlns="http://www.w3.org/2000/svg" width="31.537" height="21.025" viewBox="0 0 31.537 21.025">
  <defs>
    <style>
      .cls-1 {
        fill: #605d5d;
      }
    </style>
  </defs>
  <path id="ticket-dashboards" class="cls-1" d="M7.008,9.756H24.529V20.269H7.008Zm21.9,5.256a2.628,2.628,0,0,0,2.628,2.628V22.9a2.628,2.628,0,0,1-2.628,2.628H2.628A2.628,2.628,0,0,1,0,22.9V17.64a2.628,2.628,0,0,0,2.628-2.628A2.628,2.628,0,0,0,0,12.384V7.128A2.628,2.628,0,0,1,2.628,4.5H28.909a2.628,2.628,0,0,1,2.628,2.628v5.256A2.628,2.628,0,0,0,28.909,15.012ZM26.281,9.318A1.314,1.314,0,0,0,24.967,8H6.57A1.314,1.314,0,0,0,5.256,9.318V20.707A1.314,1.314,0,0,0,6.57,22.021h18.4a1.314,1.314,0,0,0,1.314-1.314Z" transform="translate(0 -4.5)"/>
</svg>
